<?xml version="1.0" encoding="UTF-8" standalone="no"?>
<svg
   xmlns:dc="http://purl.org/dc/elements/1.1/"
   xmlns:cc="http://creativecommons.org/ns#"
   xmlns:rdf="http://www.w3.org/1999/02/22-rdf-syntax-ns#"
   xmlns:svg="http://www.w3.org/2000/svg"
   xmlns="http://www.w3.org/2000/svg"
   xmlns:xlink="http://www.w3.org/1999/xlink"
   xmlns:sodipodi="http://sodipodi.sourceforge.net/DTD/sodipodi-0.dtd"
   xmlns:inkscape="http://www.inkscape.org/namespaces/inkscape"
   id="svg8"
   version="1.1"
   viewBox="0 0 210 297"
   height="297mm"
   width="210mm"
   sodipodi:docname="logo1.svg"
   inkscape:version="0.92.4 (5da689c313, 2019-01-14)">
  <sodipodi:namedview
     pagecolor="#ffffff"
     bordercolor="#666666"
     borderopacity="1"
     objecttolerance="10"
     gridtolerance="10"
     guidetolerance="10"
     inkscape:pageopacity="0"
     inkscape:pageshadow="2"
     inkscape:window-width="1366"
     inkscape:window-height="705"
     id="namedview56"
     showgrid="false"
     showguides="true"
     inkscape:guide-bbox="true"
     inkscape:zoom="0.47749719"
     inkscape:cx="451.16265"
     inkscape:cy="595.96797"
     inkscape:window-x="-8"
     inkscape:window-y="-8"
     inkscape:window-maximized="1"
     inkscape:current-layer="svg8">
    <sodipodi:guide
       position="-185.0709,-130.21455"
       orientation="0.70710678,0.70710678"
       id="guide3761"
       inkscape:locked="false" />
  </sodipodi:namedview>
  <title
     id="title158">Logo Gustavo Durand</title>
  <defs
     id="defs2">
    <pattern
       xlink:href="#Wavywhite"
       id="pattern6495"
       patternTransform="matrix(1.4816285,0,0,1.6840558,57.55683,-59.279304)" />
    <pattern
       id="Wavywhite"
       height="5.1805778"
       width="30.066020"
       patternUnits="userSpaceOnUse">
      <path
         id="path6003"
         d="M 7.597,0.061 C 5.079,-0.187 2.656,0.302 -0.01,1.788 L -0.01,3.061 C 2.773,1.431 5.173,1.052 7.472,1.280 C 9.770,1.508 11.969,2.361 14.253,3.218 C 18.820,4.931 23.804,6.676 30.066,3.061 L 30.062,1.788 C 23.622,5.497 19.246,3.770 14.691,2.061 C 12.413,1.207 10.115,0.311 7.597,0.061 z "
         style="fill:white;stroke:none;" />
    </pattern>
    <pattern
       xlink:href="#Ermine"
       id="pattern6487"
       patternTransform="matrix(0.11391403,0,0,0.11119281,-279.65095,-19.776137)" />
    <pattern
       patternUnits="userSpaceOnUse"
       width="783.093"
       height="797.156"
       patternTransform="translate(0,0) scale(0.05,0.05)"
       id="Ermine">
      <g
         id="g2575">
        <path
           style="fill:black;fill-opacity:1;fill-rule:evenodd;stroke:none;stroke-width:1;stroke-linecap:butt;stroke-linejoin:miter;stroke-miterlimit:4;stroke-opacity:1"
           d="M 566.875,361.31 C 529.023,361.31 498.281,392.05 498.281,429.90 C 498.281,467.75 529.023,498.46 566.875,498.46 C 604.726,498.46 635.437,467.75 635.437,429.90 C 635.437,392.05 604.726,361.31 566.875,361.31 z "
           id="path3042" />
        <path
           style="fill:black;fill-opacity:1;fill-rule:evenodd;stroke:none;stroke-width:1;stroke-linecap:butt;stroke-linejoin:miter;stroke-miterlimit:4;stroke-opacity:1"
           d="M 177.156,0.34 C 139.304,0.34 108.593,31.05 108.593,68.90 C 108.593,106.75 139.304,137.5 177.156,137.5 C 215.007,137.5 245.718,106.75 245.718,68.90 C 245.718,31.05 215.007,0.34 177.156,0.34 z "
           id="path3052" />
        <path
           style="opacity:0;fill:black;fill-opacity:1;fill-rule:evenodd;stroke:none;stroke-width:1;stroke-linecap:butt;stroke-linejoin:miter;stroke-miterlimit:4;stroke-opacity:1"
           d="M 783.093,117.93 C 780.736,124.86 779.437,132.27 779.437,140 C 779.437,147.71 780.739,155.13 783.093,162.06 L 783.093,117.93 z "
           id="path3050" />
        <path
           style="fill:black;fill-opacity:1;fill-rule:evenodd;stroke:none;stroke-width:1;stroke-linecap:butt;stroke-linejoin:miter;stroke-miterlimit:4;stroke-opacity:1"
           d="M 285.718,140.78 C 247.867,140.78 217.156,171.49 217.156,209.34 C 217.156,247.19 247.867,277.90 285.718,277.90 C 323.570,277.90 354.281,247.19 354.281,209.34 C 354.281,171.49 323.570,140.78 285.718,140.78 z "
           id="path3048" />
        <path
           style="fill:black;fill-opacity:1;fill-rule:evenodd;stroke:none;stroke-width:1;stroke-linecap:butt;stroke-linejoin:miter;stroke-miterlimit:4;stroke-opacity:1"
           d="M 161.375,165.06 C 144.552,433.12 73.284,537.85 28.593,722.31 L 126.687,653.71 L 180,722. L 233.312,653.65 L 325.687,722.21 C 273.529,536.18 207.547,433.42 192.75,165.06 L 161.375,165.06 z "
           id="path3044" />
        <path
           style="fill:black;fill-opacity:1;fill-rule:evenodd;stroke:none;stroke-width:1;stroke-linecap:butt;stroke-linejoin:miter;stroke-miterlimit:4;stroke-opacity:1"
           d="M 551.093,526.03 C 543.970,639.54 527.089,723.7 506.593,797.15 L 624,797.15 C 604.261,723.91 588.746,639.88 582.468,526.03 L 551.093,526.03 z "
           id="path3036" />
        <path
           style="fill:black;fill-opacity:1;fill-rule:evenodd;stroke:none;stroke-width:1;stroke-linecap:butt;stroke-linejoin:miter;stroke-miterlimit:4;stroke-opacity:1"
           d="M 675.437,501. C 637.586,501. 606.875,532.46 606.875,570.31 C 606.875,608.16 637.586,638.90 675.437,638.90 C 713.288,638.90 744.000,608.16 744,570.31 C 744,532.46 713.288,501. 675.437,501. z "
           id="path3040" />
        <path
           style="fill:black;fill-opacity:1;fill-rule:evenodd;stroke:none;stroke-width:1;stroke-linecap:butt;stroke-linejoin:miter;stroke-miterlimit:4;stroke-opacity:1"
           d="M 68.593,143.6 C 30.742,143.6 0,174.36 0,212.21 C 0,250.07 30.742,280.78 68.593,280.78 C 106.445,280.78 137.156,250.07 137.156,212.21 C 137.156,174.36 106.445,143.6 68.593,143.6 z "
           id="path3046" />
        <path
           style="fill:black;fill-opacity:1;fill-rule:evenodd;stroke:none;stroke-width:1;stroke-linecap:butt;stroke-linejoin:miter;stroke-miterlimit:4;stroke-opacity:1"
           d="M 507.406,0 C 479.357,101.33 444.335,181.71 418.312,289.1 L 516.406,220.53 L 569.718,289.09 L 623.031,220.5 L 715.406,289.03 C 685.074,180.8 650.084,100.80 623.187,0 L 507.406,0 z "
           id="path3054" />
        <path
           style="fill:black;fill-opacity:1;fill-rule:evenodd;stroke:none;stroke-width:1;stroke-linecap:butt;stroke-linejoin:miter;stroke-miterlimit:4;stroke-opacity:1"
           d="M 458.281,504.6 C 420.429,504.6 389.718,535.33 389.718,573.18 C 389.718,611.03 420.429,641. 458.281,641. C 496.132,641. 526.875,611.03 526.875,573.18 C 526.875,535.33 496.132,504.62 458.281,504.6 z "
           id="path3038" />
      </g>
    </pattern>
    <linearGradient
       id="linearGradient76">
      <stop
         style="stop-color:#000000;stop-opacity:1;"
         offset="0"
         id="stop72" />
      <stop
         style="stop-color:#00ffff;stop-opacity:1"
         offset="1"
         id="stop74" />
    </linearGradient>
    <linearGradient
       xlink:href="#linearGradient76"
       id="linearGradient64"
       x1="150.50587"
       y1="73.361"
       x2="168.52419"
       y2="76.01075"
       gradientUnits="userSpaceOnUse"
       gradientTransform="translate(-209.33034,2.6497513)" />
    <linearGradient
       xlink:href="#linearGradient76"
       id="linearGradient78"
       x1="228.49301"
       y1="161.29243"
       x2="215.79213"
       y2="178.48755"
       gradientUnits="userSpaceOnUse"
       gradientTransform="matrix(0.99667066,0,0,1.3988271,-249.50958,-76.282716)" />
    <linearGradient
       xlink:href="#linearGradient76"
       id="linearGradient6221"
       gradientUnits="userSpaceOnUse"
       gradientTransform="translate(-265.95418,-39.517613)"
       x1="150.50587"
       y1="73.361"
       x2="168.52419"
       y2="76.01075" />
  </defs>
  <metadata
     id="metadata5">
    <rdf:RDF>
      <cc:Work
         rdf:about="">
        <dc:format>image/svg+xml</dc:format>
        <dc:type
           rdf:resource="http://purl.org/dc/dcmitype/StillImage" />
        <dc:title>Logo Gustavo Durand</dc:title>
      </cc:Work>
    </rdf:RDF>
  </metadata>
  <g
     id="layer1"
     transform="matrix(3.386977,0,0,5.0082438,-29.939926,-83.335013)"
     inkscape:transform-center-x="-8.3115672"
     inkscape:transform-center-y="-2.2164179">
    <g
       transform="matrix(0.35087306,0,0,0.31169283,71.856588,8.0484694)"
       id="layer1-6">
      <flowRoot
         xml:space="preserve"
         id="flowRoot26"
         style="font-style:normal;font-weight:normal;font-size:40px;line-height:1.25;font-family:sans-serif;letter-spacing:0px;word-spacing:0px;fill:#000000;fill-opacity:1;stroke:none"><flowRegion
           id="flowRegion28"><rect
             id="rect30"
             width="234.33821"
             height="596.37622"
             x="271.46237"
             y="232.99794" /></flowRegion><flowPara
           id="flowPara32" /></flowRoot>      <flowRoot
         xml:space="preserve"
         id="flowRoot34"
         style="font-style:normal;font-weight:normal;font-size:40px;line-height:1.25;font-family:sans-serif;letter-spacing:0px;word-spacing:0px;fill:#000000;fill-opacity:1;stroke:none"><flowRegion
           id="flowRegion36"><rect
             id="rect38"
             width="47.055614"
             height="213.56406"
             x="382.85715"
             y="654.66992" /></flowRegion><flowPara
           id="flowPara40" /></flowRoot>      <path
         id="rect6214"
         transform="scale(0.26458333)"
         style="fill:#699999;fill-opacity:1;stroke-width:0.99999994"
         d="M -677.00195,30.90625 V 553.4082 c 0.21662,0.26042 0.41553,0.54147 0.64257,0.78907 -0.12764,0.98961 -0.37969,1.95115 -0.64257,2.91015 v 16.19141 c 0.0943,0.06 0.16893,0.0974 0.27734,0.17187 0.16897,0.11636 -0.17598,0.36066 -0.27734,0.54688 v 1.26758 c 0.14115,0.0332 0.28061,0.0695 0.41601,0.12304 0.0769,0.0305 -0.0337,0.11324 -0.11328,0.19532 0.0171,0.0142 0.0315,0.0331 0.0488,0.0469 -0.10548,0.18287 -0.22603,0.35827 -0.31641,0.54883 -0.0118,0.0306 -0.0233,0.0612 -0.0351,0.0918 v 0.49218 c 0.30401,0.0315 0.61182,0.076 0.9082,0.0742 -0.16145,0.43871 -0.19353,0.47629 -0.33398,0.73438 0.002,0.003 0.004,0.005 0.006,0.008 0.13645,0.26192 -0.18241,0.56182 -0.26367,0.8457 -0.11209,0.39168 -0.22328,0.78317 -0.3164,1.17969 v 2.10547 c 0.5092,0.35719 0.24054,1.16249 0.0976,1.55859 -0.0297,0.0825 -0.0642,0.1631 -0.0976,0.24414 v 4.11719 c -3.1e-4,0.0156 0.003,0.0313 0.002,0.0469 -1.2e-4,0.002 -0.002,0.01 -0.002,0.0117 v 27.03711 c 0.005,0.0267 0.008,0.0535 0.0156,0.0801 0.0548,0.0951 0.0954,0.19903 0.14258,0.29883 0.0227,0.0896 0.0546,0.17611 0.0625,0.26758 0.0265,0.30236 -0.009,0.30286 -0.0352,0.53515 -0.0227,0.19956 -0.006,0.4055 -0.006,0.60547 -0.0302,-0.10129 0.0171,0.26463 0.01,0.29297 -0.0829,0.24279 -0.13396,0.3729 -0.18945,0.48828 V 747.9668 H -26.039062 V 30.90625 Z m 0.33789,523.34961 c 0.0189,-0.0227 -0.0712,0.007 -0.0859,0.0332 -0.0173,0.0308 -0.025,0.0661 -0.041,0.0977 0.0418,-0.035 0.0833,-0.0751 0.12696,-0.13086 z"
         inkscape:connector-curvature="0" />
      <path
         id="rect6218"
         transform="scale(0.26458333)"
         style="fill:#699999;fill-opacity:1;stroke-width:0.99999994"
         d="M -677.00195,30.90625 V 553.4082 c 0.21662,0.26042 0.41553,0.54147 0.64257,0.78907 -0.12764,0.98961 -0.37969,1.95115 -0.64257,2.91015 v 16.19141 c 0.0943,0.06 0.16893,0.0974 0.27734,0.17187 0.16897,0.11636 -0.17598,0.36066 -0.27734,0.54688 v 1.26758 c 0.14115,0.0332 0.28061,0.0695 0.41601,0.12304 0.0769,0.0305 -0.0337,0.11324 -0.11328,0.19532 0.0171,0.0142 0.0315,0.0331 0.0488,0.0469 -0.10548,0.18287 -0.22603,0.35827 -0.31641,0.54883 -0.0118,0.0306 -0.0233,0.0612 -0.0351,0.0918 v 0.49218 c 0.30401,0.0315 0.61182,0.076 0.9082,0.0742 -0.16145,0.43871 -0.19353,0.47629 -0.33398,0.73438 0.002,0.003 0.004,0.005 0.006,0.008 0.13645,0.26192 -0.18241,0.56182 -0.26367,0.8457 -0.11209,0.39168 -0.22328,0.78317 -0.3164,1.17969 v 2.10547 c 0.5092,0.35719 0.24054,1.16249 0.0976,1.55859 -0.0297,0.0825 -0.0642,0.1631 -0.0976,0.24414 v 4.11719 c -3.1e-4,0.0156 0.003,0.0313 0.002,0.0469 -1.2e-4,0.002 -0.002,0.01 -0.002,0.0117 v 27.03711 c 0.005,0.0267 0.008,0.0535 0.0156,0.0801 0.0548,0.0951 0.0954,0.19903 0.14258,0.29883 0.0227,0.0896 0.0546,0.17611 0.0625,0.26758 0.0265,0.30236 -0.009,0.30286 -0.0352,0.53515 -0.0227,0.19956 -0.006,0.4055 -0.006,0.60547 -0.0302,-0.10129 0.0171,0.26463 0.01,0.29297 -0.0829,0.24279 -0.13396,0.3729 -0.18945,0.48828 V 747.9668 H -26.039062 V 30.90625 Z m 0.33789,523.34961 c 0.0189,-0.0227 -0.0712,0.007 -0.0859,0.0332 -0.0173,0.0308 -0.025,0.0661 -0.041,0.0977 0.0418,-0.035 0.0833,-0.0751 0.12696,-0.13086 z"
         inkscape:connector-curvature="0" />
      <ellipse
         style="fill:#ffffff;fill-opacity:1;stroke-width:0.26458332"
         id="path6478"
         cx="126.45526"
         cy="154.981"
         rx="6.614583"
         ry="5.8363967" />
      <ellipse
         style="fill:#ffffff;fill-opacity:1;stroke-width:0.26458332"
         id="path6480"
         cx="159.08394"
         cy="119.96262"
         rx="50.916054"
         ry="16.731005" />
      <ellipse
         style="fill:#ffffff;fill-opacity:1;stroke-width:0.26458332"
         id="path6482"
         cx="131.51349"
         cy="87.667885"
         rx="3.112745"
         ry="20.232843" />
      <ellipse
         id="path20"
         cx="-91.974449"
         cy="104.8586"
         rx="116.10539"
         ry="127.40021"
         style="opacity:0.32100004;fill:url(#pattern6495);fill-opacity:1;stroke-width:0.94073504" />
      <path
         id="path22"
         style="fill:url(#linearGradient6221);fill-opacity:1;stroke-width:0.26458332"
         d="m -113.98495,22.129857 c -2.32579,1.56715 -5.00362,2.74941 -7.3644,4.27829 -0.85699,0.47145 -1.67997,0.88548 -2.37454,1.08004 0.10964,0.24711 0.16405,0.36798 0.23255,0.51986 -0.53985,0.47206 -1.04827,0.97892 -1.50534,1.54151 -2.0252,2.49273 -1.65966,6.20563 -2.56263,9.2878 -1.54436,5.27143 -3.1041,10.53958 -4.77852,15.77113 -7.47234,23.34653 -16.04414,46.293743 -24.55251,69.275363 -4.59044,12.13708 -9.13765,24.29832 -13.82086,36.40553 0.12911,0.0889 0.21153,0.23344 0.31781,0.34933 -0.0466,0.36096 -0.15335,0.70829 -0.24805,1.05834 -0.009,0.26518 -0.0145,0.53043 -0.0367,0.79478 -0.0826,0.98555 -0.21669,1.96798 -0.38447,2.94452 -0.003,0.0182 -0.002,0.0177 -0.005,0.0377 0,0 0,5.3e-4 0,5.3e-4 0.0452,0.0225 0.0876,0.0468 0.12041,0.078 0.009,-0.0209 0.0212,-0.0357 0.0413,-0.0279 0.0466,0.0182 0.0814,0.0346 0.11782,0.0512 0.0701,0.0201 0.16182,0.0686 0.29817,0.16227 0.0456,0.0314 -0.0514,0.0982 -0.076,0.14779 -0.0384,0.0773 -0.0754,0.15541 -0.11317,0.23306 0.0348,0.0304 0.069,0.0619 0.10232,0.0951 0.0421,0.009 0.0833,0.0208 0.1235,0.0367 0.0204,0.008 -0.009,0.03 -0.03,0.0517 0.005,0.004 0.008,0.009 0.0129,0.0124 -0.0279,0.0484 -0.0598,0.0948 -0.0837,0.14521 -0.0134,0.0346 -0.0268,0.0691 -0.0398,0.10387 -0.005,0.0149 -0.0105,0.0308 -0.016,0.0455 0.0952,0.007 0.19322,0.0254 0.2868,0.0248 -0.0427,0.11608 -0.0512,0.12602 -0.0884,0.1943 5.2e-4,8e-4 0.001,0.001 0.002,0.002 0.0361,0.0693 -0.0483,0.14865 -0.0698,0.22376 -0.0302,0.10552 -0.0604,0.21093 -0.0853,0.31781 -0.0375,0.16079 -0.0743,0.33544 -0.10853,0.51005 0.004,5.3e-4 0.007,-2.2e-4 0.0109,5.3e-4 0.26629,0.0479 0.1701,0.32834 0.12506,0.4532 -0.0131,0.0363 -0.0288,0.0716 -0.0429,0.10749 -0.0121,0.29048 -8e-4,0.58096 0.01,0.87126 0.002,0.0625 0.0103,0.12512 0.008,0.18759 -0.003,0.0516 -0.0382,0.23832 -0.0491,0.29765 -0.004,0.0936 -0.009,0.18694 -0.0109,0.2806 -0.007,0.39578 8e-4,0.79184 0.01,1.18753 0.001,0.0484 -2.7e-4,0.0153 5.3e-4,0.0388 0.0111,-5.3e-4 0.0131,0.0304 0.002,0.0336 -7.9e-4,2e-4 -0.001,2.6e-4 -0.002,5.3e-4 -2.7e-4,-0.001 0.002,0.0491 5.3e-4,0.0294 0.0269,0.008 -0.001,0.0584 -0.001,0.0873 9e-5,0.0595 7.9e-4,0.11213 0.001,0.17105 2.4e-4,0.0536 -8e-5,0.0327 0,0.0615 7.9e-4,0.32308 -0.22412,0.41622 -0.36225,0.28939 0.003,0.051 0.002,0.10018 -5.3e-4,0.16278 -0.003,0.0884 -0.0259,0.1838 0.007,0.26768 0.0211,0.0763 0.0415,0.14056 0.0434,0.22118 0.001,0.0534 -0.0125,0.10828 -0.0155,0.16175 0.009,0.0539 -0.009,0.11554 0.004,0.16846 8e-4,0.004 0.0101,-0.004 0.0114,0 0.0129,0.0363 0.0189,0.0743 0.0284,0.11162 0.0331,0.19182 0.003,0.38917 0.004,0.58343 0.005,0.12142 0.003,0.24284 0.003,0.36432 -5.2e-4,0.11479 0,0.22938 0,0.34416 -2e-5,0.0358 1e-5,0.0717 0,0.10749 0.007,0.0189 0.0141,0.0398 0.0212,0.0512 0.0653,0.23582 0.0104,0.003 0.0372,0.22169 8e-4,0.007 0.003,-0.0288 0.006,-0.0217 0.0387,0.12867 0.0376,0.26417 0.0382,0.39688 -0.002,0.0951 -0.006,0.18976 -0.007,0.28474 0.066,0.12468 0.0592,0.21347 0.0434,0.35191 0.004,0.032 -0.0111,0.0743 0,0.10542 0.001,0.004 0.0102,-0.006 0.0114,-0.003 0.029,0.0777 0.0433,0.15977 0.0651,0.23978 0.0971,0.41539 0.005,-0.005 0.0811,0.43356 0.006,0.0371 0.0173,0.0733 0.0253,0.11007 0.003,0.0122 0.004,0.0245 0.007,0.0367 0.0145,0.0252 0.0252,0.0527 0.0377,0.0791 0.006,0.0237 0.0144,0.0466 0.0165,0.0708 0.007,0.08 -0.002,0.0801 -0.009,0.1416 -0.001,0.009 5.3e-4,0.0173 0,0.0258 6.62038,-13.60032 13.49931,-27.07229 21.04058,-40.18825 4.20303,5.17123 9.6354,8.22318 15.59749,11.36158 5.5703,2.75754 11.38008,4.90568 17.45734,6.19549 0.5473,0.0927 1.08792,0.24942 1.64227,0.27802 4.26002,0.21946 11.38318,-6.04464 11.87421,-6.39134 0.83801,-0.59171 1.02081,-5.74996 1.08211,-6.58203 0.10662,-5.74985 0.65485,-11.46924 1.55546,-17.14521 0.25164,-3.24812 1.177763,-6.37344 1.728083,-9.5653 0.11128,-1.26151 -0.0937,-2.99272 -1.730153,-2.83807 -1.23968,0.35554 -2.51396,0.51246 -3.79563,0.61185 -1.69553,0.0962 -3.39487,0.10772 -5.09271,0.11472 -1.75683,-0.0337 -3.51898,0.054 -5.27358,-0.0527 -1.60901,-0.23691 -2.24026,-1.45175 -2.83239,-2.82619 -0.59987,-1.26589 -1.08308,-2.5747 -1.65054,-3.85454 l -9.75651,5.50612 c 0.58465,1.26282 1.08967,2.55557 1.70118,3.80649 0.83222,1.89707 1.39433,3.07624 3.39876,3.83594 1.77414,0.32228 3.60434,0.0463 5.39967,0.13539 1.6957,0.003 3.39191,0.0299 5.08703,-0.03 1.29381,-0.0541 2.60165,-0.10867 3.86385,-0.42168 0.1204,-0.0503 0.26059,-0.0683 0.36122,-0.15141 0.13412,-0.11073 0.0404,-0.42824 0.2067,-0.47904 0.25513,-0.0779 0.12149,1.52115 0.13539,1.51515 -0.53989,3.16412 -1.30882,6.28833 -1.53479,9.50433 -0.72499,5.69209 -1.12716,11.41027 -1.44022,17.13901 -0.0332,0.25644 -0.0627,0.52365 -0.093,0.78858 -4.66541,-1.11186 -9.17512,-2.76341 -13.53095,-4.8364 -6.26488,-3.25329 -12.44863,-6.77489 -16.19075,-13.00489 -0.008,-0.0125 -1.60936,-2.62768 -2.01641,-2.46393 -10.36653,4.17031 -10.53958,4.98211 -14.51074,12.26488 2.19735,-6.00571 4.40294,-12.00833 6.6461,-17.99631 23.53946,-63.275443 -5.4527,14.59253 18.08314,-48.416173 2.69032,-7.20235 5.37408,-14.40702 8.04033,-21.61832 0.72755,-1.96776 1.56949,-5.39541 2.39986,-8.69869 l 4.61419,-2.39262 c 14.0074,71.711673 9.44048,22.66654 4.92063,-4.45813 -0.18639,-2.23351 -0.28113,-4.47491 -0.35451,-6.71432 -0.0751,-2.29216 0.0471,-4.56502 -0.50332,-6.79958 z M -170.474,160.65422 c 0.005,-0.006 -0.0188,0.002 -0.0227,0.009 -0.005,0.008 -0.007,0.0175 -0.0109,0.0258 0.0111,-0.009 0.022,-0.0199 0.0336,-0.0346 z m -0.61082,0.60151 c -0.0677,0.17467 -0.13534,0.34935 -0.20309,0.524 0.045,-0.003 0.0919,-0.002 0.13953,0.001 0.0141,-0.057 0.0283,-0.1138 0.0434,-0.17053 0.001,-0.027 0.001,-0.0541 0.003,-0.0811 0.006,-0.0882 0.0128,-0.18165 0.0176,-0.27336 z m -0.40773,1.05317 c -0.0105,0.027 -0.021,0.0541 -0.0315,0.0811 -0.008,0.0683 -0.0148,0.13084 -0.0243,0.21445 1e-5,0.0143 -1e-5,0.0286 0,0.0429 0.0178,-0.10848 0.034,-0.19581 0.0558,-0.33848 z m 0.40721,3.51296 c 0.004,-0.009 -0.024,-0.005 -0.03,0.003 -0.0111,0.0146 -0.0185,0.031 -0.0269,0.047 -2.6e-4,0.002 -0.001,0.004 -0.002,0.006 0.0191,0.002 0.0265,7e-5 0.009,-0.008 0.0164,-0.0161 0.04,-0.0274 0.0491,-0.0486 z m -0.3886,4.35942 c -0.0417,0.15386 -0.077,0.30933 -0.11317,0.46457 0.016,-0.0459 0.0378,-0.10855 0.0501,-0.14521 0.001,-0.004 0.002,-0.009 0.004,-0.0124 0.0232,-0.0696 0.0743,-0.20739 0.0966,-0.27957 -0.003,-0.001 -0.006,-0.001 -0.008,-0.003 -0.0115,-0.007 -0.0212,-0.0153 -0.0295,-0.0248 z m 0.49816,5.3051 c 0.005,0.0121 0.009,0.0246 0.0134,0.0367 0.0256,0.018 0.0438,0.0479 0.0594,0.0806 0.0164,-0.0124 -2.7e-4,-0.0876 -0.0729,-0.11731 z m -20.86899,32.60835 c -0.0825,0.16677 -0.10968,0.22019 -0.19172,0.38602 0.0935,0.0414 0.15436,0.11115 0.19637,0.20878 0.007,-0.13858 0.01,-0.25476 0.0176,-0.40205 -0.008,-0.0642 -0.0145,-0.12853 -0.0222,-0.19275 z"
         inkscape:connector-curvature="0" />
      <path
         style="fill:url(#linearGradient78);fill-opacity:1;stroke-width:0.31240654"
         id="path24"
         d="m -92.77105,92.210644 c -0.701653,-4.083269 -1.311918,-8.182685 -1.845809,-12.316316 -0.561055,-4.272725 -0.840654,-8.590766 -0.942275,-12.92828 -0.09088,-4.121041 -0.0596,-8.243026 -0.0505,-12.365101 0.09569,-3.947405 -0.03839,-7.853819 -0.835358,-11.655973 0.566915,-0.438871 -1.064722,-1.966809 -0.568611,-2.492215 3.06232,-3.243157 6.04856,-6.937266 9.643921,-8.815414 0.819941,-0.428318 1.039946,1.975022 1.55947,2.962984 1.25654,2.389502 2.441044,4.856953 3.768737,7.169437 2.45379,4.273851 5.046754,8.386573 7.570135,12.579863 10.03082,15.301274 20.211618,30.413589 30.524851,45.346091 9.95548,14.4146 20.034368,28.66164 30.220863,42.7494 1.451964,2.07365 2.949998,4.08567 4.3558984,6.22103 4.0985511,6.22462 2.3043808,6.48484 -8.2391884,11.78151 -1.010352,0.50755 -1.755227,-1.73356 -2.627872,-2.61013 -5.35262,-5.37662 -1.673854,-1.85001 -7.615304,-7.36108 -6.354573,-5.02736 -13.205902,-9.92733 -20.596516,-10.87773 -0.856505,-0.11063 -1.719823,-0.0492 -2.579742,-0.0752 -0.64213,0.22972 -7.147287,6.58081 -1.92641,0.68912 1.92641,-0.68912 1.464943,-0.33659 1.92641,-0.68912 2.788667,-2.13056 2.185788,-2.73821 5.055512,-4.64509 0.423511,-0.2815 -0.645763,0.95934 -0.915396,1.49728 -0.438411,0.87452 -0.901785,2.33796 -1.230912,3.30735 -1.197113,2.99794 -2.935244,5.41718 -5.054112,7.15226 -11.49002,9.40861 -7.576885,7.33109 -14.378078,10.44711 -1.175423,-0.385 -2.440786,-0.41404 -3.526269,-1.15474 -3.054883,-2.08467 -5.437589,-6.15343 -7.325234,-9.91205 -3.485054,-6.93951 -5.801164,-14.79264 -8.141157,-22.55863 l 8.923971,-7.00656 v 0 c 2.174347,7.73258 4.362586,15.45288 7.969373,22.15756 1.833044,3.40738 4.281752,7.20278 7.275081,8.75489 1.031074,0.53461 2.187512,0.30684 3.281266,0.46015 5.112817,-2.76379 4.093276,-2.46874 -4.18704,4.36433 -0.641068,0.52903 1.273716,-1.08063 1.884154,-1.6767 1.291856,-1.26155 2.325042,-2.79749 3.221554,-4.60635 0.376416,-1.11864 1.326759,-4.80029 1.977995,-5.42387 3.381119,-3.23819 6.942372,-6.09357 10.486869,-8.96697 0.449496,-0.36443 0.961316,-0.57362 1.469038,-0.7252 0.651517,-0.19454 1.324218,-0.20442 1.986312,-0.30674 0.850309,0.10932 1.707117,0.14203 2.550926,0.3248 7.349734,1.59235 14.12278,6.65161 20.541875,11.63399 1.419266,1.25192 2.837328,2.50657 4.257822,3.75578 1.218249,1.07137 2.385388,2.26841 3.658425,3.20597 0.777183,0.57236 3.0350796,0.36775 2.4639343,1.30308 -10.6254913,17.401 -6.5999543,10.61731 -9.2374013,5.09738 -1.124329,-2.35314 -2.505073,-4.44373 -3.757607,-6.66568 -7.645185,-11.85485 -15.348092,-23.6371 -23.149145,-35.28828 -12.122544,-18.105594 -24.482086,-35.89491 -37.230237,-53.148768 -2.83371,-3.951893 -5.685865,-7.877913 -8.501143,-11.855689 -1.518345,-2.145317 -2.964353,-4.390796 -4.499214,-6.512848 -0.307395,-0.424987 -1.348353,-0.724923 -1.020235,-1.118194 2.732438,-3.274879 5.845564,-5.897476 8.96403,-8.402613 0.533427,-0.428512 -0.329752,3.438445 0.48699,2.495977 0.790189,3.943604 1.065547,7.997172 0.914146,12.089654 0.002,4.101153 0.007,8.202806 0.05323,12.303328 0.102514,4.275034 0.279336,8.551594 0.809312,12.771846 0.523439,4.055866 1.140997,8.083915 1.989418,12.03322 l -9.810759,7.505466 z"
         inkscape:connector-curvature="0" />
      <ellipse
         style="opacity:1;fill:#000000;fill-opacity:1;stroke-width:0.26458332"
         id="path6497"
         cx="-100.77512"
         cy="159.26103"
         rx="5.0582108"
         ry="4.6691175" />
      <circle
         style="opacity:1;fill:#000000;fill-opacity:1;stroke-width:0.26458332"
         id="path6499"
         cx="-26.069241"
         cy="159.65012"
         r="5.0582108" />
    </g>
  </g>
</svg>
